  0
SECTION
  2
HEADER
  9
$ACADVER
  1
AC1014
  9
$HANDSEED
  5
FFFF
  9
$MEASUREMENT
 70
     1
  0
ENDSEC
  0
SECTION
  2
TABLES
  0
TABLE
  2
VPORT
  5
8
330
0
100
AcDbSymbolTable
 70
     4
  0
VPORT
  5
2E
330
8
100
AcDbSymbolTableRecord
100
AcDbViewportTableRecord
  2
*ACTIVE
 70
     0
 10
0.0
 20
0.0
 11
1.0
 21
1.0
 12
210.0
 22
148.5
 13
0.0
 23
0.0
 14
10.0
 24
10.0
 15
10.0
 25
10.0
 16
0.0
 26
0.0
 36
1.0
 17
0.0
 27
0.0
 37
0.0
 40
341.0
 41
1.24
 42
50.0
 43
0.0
 44
0.0
 50
0.0
 51
0.0
 71
     0
 72
   100
 73
     1
 74
     3
 75
     0
 76
     0
 77
     0
 78
     0
  0
ENDTAB
  0
TABLE
  2
LTYPE
  5
5
330
0
100
AcDbSymbolTable
 70
     1
  0
LTYPE
  5
14
330
5
100
AcDbSymbolTableRecord
100
AcDbLinetypeTableRecord
  2
BYBLOCK
 70
     0
  3

 72
    65
 73
     0
 40
0.0
  0
LTYPE
  5
15
330
5
100
AcDbSymbolTableRecord
100
AcDbLinetypeTableRecord
  2
BYLAYER
 70
     0
  3

 72
    65
 73
     0
 40
0.0
  0
LTYPE
  5
16
330
5
100
AcDbSymbolTableRecord
100
AcDbLinetypeTableRecord
  2
CONTINUOUS
 70
     0
  3
Solid line
 72
    65
 73
     0
 40
0.0
  0
ENDTAB
  0
TABLE
  2
LAYER
  5
2
100
AcDbSymbolTable
 70
2
  0
LAYER
  5
50
100
AcDbSymbolTableRecord
100
AcDbLayerTableRecord
  2
0
 70
0
  6
CONTINUOUS
  0
LAYER
  5
51
100
AcDbSymbolTableRecord
100
AcDbLayerTableRecord
  2
Layer_1
 70
0
  6
CONTINUOUS
  0
ENDTAB
  0
TABLE
  2
STYLE
  5
3
330
0
100
AcDbSymbolTable
 70
     1
  0
STYLE
  5
11
330
3
100
AcDbSymbolTableRecord
100
AcDbTextStyleTableRecord
  2
STANDARD
 70
     0
 40
0.0
 41
1.0
 50
0.0
 71
     0
 42
2.5
  3
txt
  4

  0
ENDTAB
  0
TABLE
  2
VIEW
  5
6
330
0
100
AcDbSymbolTable
 70
     0
  0
ENDTAB
  0
TABLE
  2
UCS
  5
7
330
0
100
AcDbSymbolTable
 70
     0
  0
ENDTAB
  0
TABLE
  2
APPID
  5
9
330
0
100
AcDbSymbolTable
 70
     2
  0
APPID
  5
12
330
9
100
AcDbSymbolTableRecord
100
AcDbRegAppTableRecord
  2
ACAD
 70
     0
  0
ENDTAB
  0
TABLE
  2
DIMSTYLE
  5
A
330
0
100
AcDbSymbolTable
 70
     1
  0
DIMSTYLE
105
27
330
A
100
AcDbSymbolTableRecord
100
AcDbDimStyleTableRecord
  2
ISO-25
 70
     0
  3

  4

  5

  6

  7

 40
1.0
 41
2.5
 42
0.625
 43
3.75
 44
1.25
 45
0.0
 46
0.0
 47
0.0
 48
0.0
140
2.5
141
2.5
142
0.0
143
0.03937007874016
144
1.0
145
0.0
146
1.0
147
0.625
 71
     0
 72
     0
 73
     0
 74
     0
 75
     0
 76
     0
 77
     1
 78
     8
170
     0
171
     3
172
     1
173
     0
174
     0
175
     0
176
     0
177
     0
178
     0
270
     2
271
     2
272
     2
273
     2
274
     3
340
11
275
     0
280
     0
281
     0
282
     0
283
     0
284
     8
285
     0
286
     0
287
     3
288
     0
  0
ENDTAB
  0
TABLE
  2
BLOCK_RECORD
  5
1
330
0
100
AcDbSymbolTable
 70
     1
  0
BLOCK_RECORD
  5
1F
330
1
100
AcDbSymbolTableRecord
100
AcDbBlockTableRecord
  2
*MODEL_SPACE
  0
BLOCK_RECORD
  5
1B
330
1
100
AcDbSymbolTableRecord
100
AcDbBlockTableRecord
  2
*PAPER_SPACE
  0
ENDTAB
  0
ENDSEC
  0
SECTION
  2
BLOCKS
  0
BLOCK
  5
20
330
1F
100
AcDbEntity
  8
0
100
AcDbBlockBegin
  2
*MODEL_SPACE
 70
     0
 10
0.0
 20
0.0
 30
0.0
  3
*MODEL_SPACE
  1

  0
ENDBLK
  5
21
330
1F
100
AcDbEntity
  8
0
100
AcDbBlockEnd
  0
BLOCK
  5
1C
330
1B
100
AcDbEntity
 67
     1
  8
0
100
AcDbBlockBegin
  2
*PAPER_SPACE
  1

  0
ENDBLK
  5
1D
330
1B
100
AcDbEntity
 67
     1
  8
0
100
AcDbBlockEnd
  0
ENDSEC
  0
SECTION
  2
ENTITIES
  0
LWPOLYLINE
  5
100
100
AcDbEntity
  8
Layer_1
 62
5
100
AcDbPolyline
 90
65
 70
1
 10
5.359985
 20
295.142046
 30
0.0
 10
10.571576
 20
295.142046
 30
0.0
 10
15.783167
 20
295.142046
 30
0.0
 10
20.994758
 20
295.142046
 30
0.0
 10
26.206349
 20
295.142046
 30
0.0
 10
31.417940
 20
295.142046
 30
0.0
 10
36.629532
 20
295.142046
 30
0.0
 10
41.841121
 20
295.142046
 30
0.0
 10
47.052713
 20
295.142046
 30
0.0
 10
47.488729
 20
295.098351
 30
0.0
 10
47.894347
 20
294.972964
 30
0.0
 10
48.261016
 20
294.774433
 30
0.0
 10
48.580187
 20
294.511309
 30
0.0
 10
48.843311
 20
294.192138
 30
0.0
 10
49.041843
 20
293.825469
 30
0.0
 10
49.167229
 20
293.419852
 30
0.0
 10
49.210925
 20
292.983834
 30
0.0
 10
49.210925
 20
287.723193
 30
0.0
 10
49.210925
 20
282.462552
 30
0.0
 10
49.210925
 20
277.201911
 30
0.0
 10
49.210925
 20
271.941270
 30
0.0
 10
49.210925
 20
266.680630
 30
0.0
 10
49.210925
 20
261.419988
 30
0.0
 10
49.210925
 20
256.159348
 30
0.0
 10
49.210925
 20
250.898706
 30
0.0
 10
49.167229
 20
250.462690
 30
0.0
 10
49.041843
 20
250.057072
 30
0.0
 10
48.843311
 20
249.690403
 30
0.0
 10
48.580187
 20
249.371232
 30
0.0
 10
48.261016
 20
249.108108
 30
0.0
 10
47.894347
 20
248.909576
 30
0.0
 10
47.488729
 20
248.784190
 30
0.0
 10
47.052713
 20
248.740494
 30
0.0
 10
41.841121
 20
248.740494
 30
0.0
 10
36.629532
 20
248.740494
 30
0.0
 10
31.417940
 20
248.740494
 30
0.0
 10
26.206349
 20
248.740494
 30
0.0
 10
20.994758
 20
248.740494
 30
0.0
 10
15.783167
 20
248.740494
 30
0.0
 10
10.571576
 20
248.740494
 30
0.0
 10
5.359985
 20
248.740494
 30
0.0
 10
4.923968
 20
248.784190
 30
0.0
 10
4.518350
 20
248.909576
 30
0.0
 10
4.151682
 20
249.108108
 30
0.0
 10
3.832511
 20
249.371232
 30
0.0
 10
3.569386
 20
249.690403
 30
0.0
 10
3.370856
 20
250.057072
 30
0.0
 10
3.245469
 20
250.462690
 30
0.0
 10
3.201774
 20
250.898706
 30
0.0
 10
3.201774
 20
256.159348
 30
0.0
 10
3.201774
 20
261.419988
 30
0.0
 10
3.201774
 20
266.680630
 30
0.0
 10
3.201774
 20
271.941270
 30
0.0
 10
3.201774
 20
277.201911
 30
0.0
 10
3.201774
 20
282.462552
 30
0.0
 10
3.201774
 20
287.723193
 30
0.0
 10
3.201774
 20
292.983834
 30
0.0
 10
3.245469
 20
293.419852
 30
0.0
 10
3.370856
 20
293.825469
 30
0.0
 10
3.569386
 20
294.192138
 30
0.0
 10
3.832511
 20
294.511309
 30
0.0
 10
4.151682
 20
294.774433
 30
0.0
 10
4.518350
 20
294.972964
 30
0.0
 10
4.923968
 20
295.098351
 30
0.0
 10
5.359985
 20
295.142046
 30
0.0
  0
LWPOLYLINE
  5
101
100
AcDbEntity
  8
Layer_1
 62
5
100
AcDbPolyline
 90
85
 70
1
 10
18.114653
 20
290.712228
 30
0.0
 10
18.006599
 20
290.790978
 30
0.0
 10
17.890026
 20
290.859978
 30
0.0
 10
17.769997
 20
290.922823
 30
0.0
 10
17.651574
 20
290.983105
 30
0.0
 10
17.558166
 20
291.029379
 30
0.0
 10
17.464007
 20
291.074503
 30
0.0
 10
17.369939
 20
291.121782
 30
0.0
 10
17.276808
 20
291.174525
 30
0.0
 10
17.133460
 20
291.241944
 30
0.0
 10
16.992054
 20
291.313243
 30
0.0
 10
16.851316
 20
291.385791
 30
0.0
 10
16.709967
 20
291.456961
 30
0.0
 10
16.649954
 20
291.483681
 30
0.0
 10
16.585946
 20
291.518850
 30
0.0
 10
16.534668
 20
291.564511
 30
0.0
 10
16.512843
 20
291.622705
 30
0.0
 10
16.520319
 20
291.887515
 30
0.0
 10
16.525580
 20
292.152560
 30
0.0
 10
16.536271
 20
292.417202
 30
0.0
 10
16.560039
 20
292.680799
 30
0.0
 10
16.603146
 20
292.801562
 30
0.0
 10
16.653648
 20
292.918600
 30
0.0
 10
16.720433
 20
293.026169
 30
0.0
 10
16.812386
 20
293.118527
 30
0.0
 10
16.914327
 20
293.212064
 30
0.0
 10
17.024924
 20
293.294581
 30
0.0
 10
17.144270
 20
293.363082
 30
0.0
 10
17.272460
 20
293.414576
 30
0.0
 10
17.375596
 20
293.477234
 30
0.0
 10
17.488224
 20
293.513647
 30
0.0
 10
17.600173
 20
293.547090
 30
0.0
 10
17.701270
 20
293.600837
 30
0.0
 10
17.814359
 20
293.622057
 30
0.0
 10
17.910162
 20
293.682463
 30
0.0
 10
18.000858
 20
293.751339
 30
0.0
 10
18.098625
 20
293.797974
 30
0.0
 10
18.245533
 20
293.803404
 30
0.0
 10
18.392897
 20
293.806678
 30
0.0
 10
18.540037
 20
293.803997
 30
0.0
 10
18.686272
 20
293.791607
 30
0.0
 10
18.759557
 20
293.721243
 30
0.0
 10
18.854358
 20
293.675134
 30
0.0
 10
18.958485
 20
293.640291
 30
0.0
 10
19.059744
 20
293.603724
 30
0.0
 10
19.169562
 20
293.559066
 30
0.0
 10
19.281805
 20
293.518246
 30
0.0
 10
19.390635
 20
293.469832
 30
0.0
 10
19.490214
 20
293.402395
 30
0.0
 10
19.583536
 20
293.328140
 30
0.0
 10
19.679542
 20
293.266903
 30
0.0
 10
19.766573
 20
293.196524
 30
0.0
 10
19.832966
 20
293.094846
 30
0.0
 10
19.899920
 20
293.000514
 30
0.0
 10
19.966197
 20
292.902662
 30
0.0
 10
20.016292
 20
292.802181
 30
0.0
 10
20.034699
 20
292.699962
 30
0.0
 10
19.972433
 20
292.654350
 30
0.0
 10
19.919503
 20
292.601250
 30
0.0
 10
19.903653
 20
292.539619
 30
0.0
 10
19.952626
 20
292.468415
 30
0.0
 10
19.946950
 20
292.349419
 30
0.0
 10
19.877175
 20
292.254428
 30
0.0
 10
19.781446
 20
292.170014
 30
0.0
 10
19.697909
 20
292.082747
 30
0.0
 10
19.512976
 20
291.905088
 30
0.0
 10
19.336414
 20
291.719195
 30
0.0
 10
19.173313
 20
291.521876
 30
0.0
 10
19.028762
 20
291.309942
 30
0.0
 10
18.955380
 20
291.204277
 30
0.0
 10
18.902402
 20
291.087878
 30
0.0
 10
18.849406
 20
290.971388
 30
0.0
 10
18.775968
 20
290.865449
 30
0.0
 10
18.678446
 20
290.855896
 30
0.0
 10
18.584485
 20
290.902113
 30
0.0
 10
18.491466
 20
290.968343
 30
0.0
 10
18.396767
 20
291.018829
 30
0.0
 10
18.269726
 20
291.044203
 30
0.0
 10
18.220858
 20
290.954488
 30
0.0
 10
18.207591
 20
290.814741
 30
0.0
 10
18.187353
 20
290.690020
 30
0.0
 10
18.169407
 20
290.680402
 30
0.0
 10
18.148460
 20
290.684991
 30
0.0
 10
18.128783
 20
290.697643
 30
0.0
 10
18.114653
 20
290.712228
 30
0.0
  0
ENDSEC
  0
SECTION
  2
OBJECTS
  0
DICTIONARY
  5
C
330
0
100
AcDbDictionary
  3
ACAD_GROUP
350
D
  3
ACAD_MLINESTYLE
350
17
  0
DICTIONARY
  5
D
330
C
100
AcDbDictionary
  0
DICTIONARY
  5
1A
330
C
100
AcDbDictionary
  0
DICTIONARY
  5
17
330
C
100
AcDbDictionary
  3
STANDARD
350
18
  0
DICTIONARY
  5
19
330
C
100
AcDbDictionary
  0
ENDSEC
  0
EOF
