G04 #@! TF.FileFunction,Profile,NP*
%FSLAX46Y46*%
G04 Gerber Fmt 4.6, Leading zero omitted, Abs format (unit mm)*
G04 Created by KiCad (PCBNEW 4.0.7-e0-6372~58~ubuntu16.04.1) date Sun Feb 25 16:32:52 2018*
%MOMM*%
%LPD*%
G01*
G04 APERTURE LIST*
%ADD10C,0.100000*%
G04 APERTURE END LIST*
D10*
X79267029Y-77167795D02*
X79633697Y-76969264D01*
X93230000Y-81230000D02*
X93121946Y-81151250D01*
X78317121Y-78958394D02*
X78360816Y-78522376D01*
X124326272Y-121043522D02*
X124282576Y-121479538D01*
X116956468Y-76800182D02*
X122168060Y-76800182D01*
X78947858Y-77430919D02*
X79267029Y-77167795D01*
X80039315Y-123158038D02*
X79633697Y-123032652D01*
X122168060Y-123201734D02*
X116956468Y-123201734D01*
X91768995Y-79023628D02*
X91835780Y-78916059D01*
X91718493Y-79140666D02*
X91768995Y-79023628D01*
X92816617Y-78341391D02*
X92929706Y-78320171D01*
X92715520Y-78395138D02*
X92816617Y-78341391D01*
X92140271Y-78647647D02*
X92259617Y-78579146D01*
X92029674Y-78730164D02*
X92140271Y-78647647D01*
X79633697Y-76969264D02*
X80039315Y-76843877D01*
X93005373Y-81082250D02*
X92885344Y-81019405D01*
X80039315Y-76843877D02*
X80475332Y-76800182D01*
X93302700Y-81252208D02*
X93284754Y-81261826D01*
X93322938Y-81127487D02*
X93302700Y-81252208D01*
X93336205Y-80987740D02*
X93322938Y-81127487D01*
X78486203Y-121885156D02*
X78360816Y-121479538D01*
X93969705Y-78267094D02*
X94073832Y-78301937D01*
X93874904Y-78220985D02*
X93969705Y-78267094D01*
X78317121Y-121043522D02*
X78317121Y-115782880D01*
X78317121Y-89479676D02*
X78317121Y-84219035D01*
X93025509Y-78259765D02*
X93116205Y-78190889D01*
X92929706Y-78320171D02*
X93025509Y-78259765D01*
X124157190Y-78116759D02*
X124282576Y-78522376D01*
X90898514Y-76800182D02*
X96110105Y-76800182D01*
X93699832Y-81040115D02*
X93606813Y-80973885D01*
X93793793Y-81086332D02*
X93699832Y-81040115D01*
X93891315Y-81076779D02*
X93793793Y-81086332D01*
X124326272Y-110522240D02*
X124326272Y-115782880D01*
X124326272Y-84219035D02*
X124326272Y-89479676D01*
X92392155Y-80767703D02*
X92248807Y-80700284D01*
X92485286Y-80820446D02*
X92392155Y-80767703D01*
X92603571Y-78428581D02*
X92715520Y-78395138D01*
X92490943Y-78464994D02*
X92603571Y-78428581D01*
X85686923Y-123201734D02*
X80475332Y-123201734D01*
X124326272Y-115782880D02*
X124326272Y-121043522D01*
X94175091Y-78338504D02*
X94284909Y-78383162D01*
X94073832Y-78301937D02*
X94175091Y-78338504D01*
X92885344Y-81019405D02*
X92766921Y-80959123D01*
X94144109Y-80632286D02*
X94070727Y-80737951D01*
X94288660Y-80420352D02*
X94144109Y-80632286D01*
X94451761Y-80223033D02*
X94288660Y-80420352D01*
X124157190Y-121885156D02*
X123958658Y-122251825D01*
X78317121Y-84219035D02*
X78317121Y-78958394D01*
X78317121Y-100000958D02*
X78317121Y-94740317D01*
X116956468Y-123201734D02*
X111744879Y-123201734D01*
X79267029Y-122834120D02*
X78947858Y-122570996D01*
X85686923Y-76800182D02*
X90898514Y-76800182D01*
X111744879Y-76800182D02*
X116956468Y-76800182D01*
X78317121Y-94740317D02*
X78317121Y-89479676D01*
X93213972Y-78144254D02*
X93360880Y-78138824D01*
X93116205Y-78190889D02*
X93213972Y-78144254D01*
X91927733Y-78823701D02*
X92029674Y-78730164D01*
X91835780Y-78916059D02*
X91927733Y-78823701D01*
X90898514Y-123201734D02*
X85686923Y-123201734D01*
X78317121Y-110522240D02*
X78317121Y-105261598D01*
X95067973Y-79473813D02*
X95062297Y-79592809D01*
X95019000Y-79402609D02*
X95067973Y-79473813D01*
X93244130Y-81244585D02*
X93230000Y-81230000D01*
X93263807Y-81257237D02*
X93244130Y-81244585D01*
X93284754Y-81261826D02*
X93263807Y-81257237D01*
X78317121Y-105261598D02*
X78317121Y-100000958D01*
X122604076Y-123158038D02*
X122168060Y-123201734D01*
X123376363Y-122834120D02*
X123009694Y-123032652D01*
X101321696Y-76800182D02*
X106533287Y-76800182D01*
X94397152Y-78423982D02*
X94505982Y-78472396D01*
X94284909Y-78383162D02*
X94397152Y-78423982D01*
X123695534Y-122570996D02*
X123376363Y-122834120D01*
X106533287Y-123201734D02*
X101321696Y-123201734D01*
X96110105Y-76800182D02*
X101321696Y-76800182D01*
X78947858Y-122570996D02*
X78684733Y-122251825D01*
X94628323Y-80037140D02*
X94451761Y-80223033D01*
X94813256Y-79859481D02*
X94628323Y-80037140D01*
X94896793Y-79772214D02*
X94813256Y-79859481D01*
X124326272Y-94740317D02*
X124326272Y-100000958D01*
X122604076Y-76843877D02*
X123009694Y-76969264D01*
X78317121Y-115782880D02*
X78317121Y-110522240D01*
X92387807Y-78527652D02*
X92490943Y-78464994D01*
X92259617Y-78579146D02*
X92387807Y-78527652D01*
X78360816Y-78522376D02*
X78486203Y-78116759D01*
X94992522Y-79687800D02*
X94896793Y-79772214D01*
X95062297Y-79592809D02*
X94992522Y-79687800D01*
X78684733Y-122251825D02*
X78486203Y-121885156D01*
X123376363Y-77167795D02*
X123695534Y-77430919D01*
X80475332Y-76800182D02*
X80475332Y-76800182D01*
X124282576Y-121479538D02*
X124157190Y-121885156D01*
X95034850Y-79340978D02*
X95019000Y-79402609D01*
X95087780Y-79287878D02*
X95034850Y-79340978D01*
X123958658Y-77750090D02*
X124157190Y-78116759D01*
X94605561Y-78539833D02*
X94698883Y-78614088D01*
X94505982Y-78472396D02*
X94605561Y-78539833D01*
X93964753Y-80970840D02*
X93891315Y-81076779D01*
X94017749Y-80854350D02*
X93964753Y-80970840D01*
X94070727Y-80737951D02*
X94017749Y-80854350D01*
X123958658Y-122251825D02*
X123695534Y-122570996D01*
X95150046Y-79242266D02*
X95087780Y-79287878D01*
X95131639Y-79140047D02*
X95150046Y-79242266D01*
X80475332Y-76800182D02*
X85686923Y-76800182D01*
X93508244Y-78135550D02*
X93655384Y-78138231D01*
X93360880Y-78138824D02*
X93508244Y-78135550D01*
X111744879Y-123201734D02*
X106533287Y-123201734D01*
X93385073Y-80898025D02*
X93336205Y-80987740D01*
X93512114Y-80923399D02*
X93385073Y-80898025D01*
X93606813Y-80973885D02*
X93512114Y-80923399D01*
X92107401Y-80628985D02*
X91966663Y-80556437D01*
X92248807Y-80700284D02*
X92107401Y-80628985D01*
X78360816Y-121479538D02*
X78317121Y-121043522D01*
X93121946Y-81151250D02*
X93005373Y-81082250D01*
X124326272Y-89479676D02*
X124326272Y-94740317D01*
X94794889Y-78675325D02*
X94881920Y-78745704D01*
X94698883Y-78614088D02*
X94794889Y-78675325D01*
X96110105Y-123201734D02*
X90898514Y-123201734D01*
X91825314Y-80485267D02*
X91765301Y-80458547D01*
X91966663Y-80556437D02*
X91825314Y-80485267D01*
X124326272Y-105261598D02*
X124326272Y-110522240D01*
X91701293Y-80423378D02*
X91650015Y-80377717D01*
X91765301Y-80458547D02*
X91701293Y-80423378D01*
X106533287Y-76800182D02*
X111744879Y-76800182D01*
X124282576Y-78522376D02*
X124326272Y-78958394D01*
X123009694Y-76969264D02*
X123376363Y-77167795D01*
X79633697Y-123032652D02*
X79267029Y-122834120D01*
X95081544Y-79039566D02*
X95131639Y-79140047D01*
X95015267Y-78941714D02*
X95081544Y-79039566D01*
X93801619Y-78150621D02*
X93874904Y-78220985D01*
X93655384Y-78138231D02*
X93801619Y-78150621D01*
X91675386Y-79261429D02*
X91718493Y-79140666D01*
X91651618Y-79525026D02*
X91675386Y-79261429D01*
X123695534Y-77430919D02*
X123958658Y-77750090D01*
X123009694Y-123032652D02*
X122604076Y-123158038D01*
X92579354Y-80867725D02*
X92485286Y-80820446D01*
X92673513Y-80912849D02*
X92579354Y-80867725D01*
X78486203Y-78116759D02*
X78684733Y-77750090D01*
X91640927Y-79789668D02*
X91651618Y-79525026D01*
X91635666Y-80054713D02*
X91640927Y-79789668D01*
X80475332Y-123201734D02*
X80039315Y-123158038D01*
X124326272Y-100000958D02*
X124326272Y-105261598D01*
X94948313Y-78847382D02*
X95015267Y-78941714D01*
X94881920Y-78745704D02*
X94948313Y-78847382D01*
X122168060Y-76800182D02*
X122604076Y-76843877D01*
X78684733Y-77750090D02*
X78947858Y-77430919D01*
X101321696Y-123201734D02*
X96110105Y-123201734D01*
X92766921Y-80959123D02*
X92673513Y-80912849D01*
X91628190Y-80319523D02*
X91635666Y-80054713D01*
X91650015Y-80377717D02*
X91628190Y-80319523D01*
X124326272Y-78958394D02*
X124326272Y-84219035D01*
X93230000Y-81230000D02*
X93230000Y-81230000D01*
M02*
